<svg version="1.1" id="Layer_1" xmlns="http://www.w3.org/2000/svg" xmlns:xlink="http://www.w3.org/1999/xlink" x="0px" y="0px" width="100%" viewBox="0 0 491 509" enable-background="new 0 0 491 509" xml:space="preserve">

<path fill="#37A480" opacity="1.000000" stroke="none" d="
M27.060495,159.023605 
	C26.326681,148.418503 31.348751,139.680740 36.552948,131.178146 
	C43.012138,120.625145 53.993965,115.408157 64.156693,109.449715 
	C81.894363,99.050072 99.865913,89.050095 117.700920,78.815491 
	C133.675537,69.648468 149.647003,60.473904 165.524796,51.140957 
	C174.392868,45.928314 182.893173,40.073868 191.871460,35.068802 
	C204.193405,28.199781 216.568787,21.318289 229.428314,15.578010 
	C234.231949,13.433745 240.485886,13.932140 246.035034,14.184061 
	C259.751251,14.806747 270.986694,21.876841 282.348389,28.759092 
	C299.188385,38.959766 316.323395,48.672642 333.306274,58.638432 
	C344.663544,65.303062 355.922333,72.136887 367.322235,78.727142 
	C377.437439,84.574722 387.706329,90.155785 397.871063,95.918556 
	C409.181702,102.330978 420.451233,108.815849 431.999573,115.868912 
	C432.478851,117.043098 432.697266,117.617561 432.551208,118.124557 
	C430.662720,117.429939 429.048431,116.960945 427.628723,116.150955 
	C414.783783,108.822479 402.001709,101.383728 389.145538,94.075249 
	C368.180939,82.157310 347.101532,70.439735 326.206848,58.401031 
	C306.318726,46.942265 286.679260,35.051910 266.790100,23.594923 
	C252.252380,15.220575 236.725388,15.328654 222.277161,22.509895 
	C204.138367,31.525459 186.900589,42.358780 169.307755,52.466457 
	C149.450882,63.874901 129.637802,75.359543 109.794067,86.790901 
	C91.201057,97.501747 72.577065,108.158897 53.996391,118.891068 
	C39.125935,127.480209 31.550585,140.939621 30.141012,157.544464 
	C28.988550,171.120544 29.069525,184.821686 29.051777,198.467972 
	C29.034245,211.946793 29.792963,225.425659 29.835829,238.905716 
	C29.953844,276.016113 29.683655,313.128601 29.962116,350.237274 
	C30.085768,366.715424 37.805149,379.471527 51.560555,388.447021 
	C57.682716,392.441742 64.014763,396.121918 70.323128,399.822906 
	C89.538116,411.095917 108.755737,422.365173 128.032150,433.532623 
	C153.218811,448.124115 178.473373,462.598328 203.673203,477.167114 
	C208.839294,480.153748 213.892838,483.335114 218.746948,486.467041 
	C217.344193,486.640259 216.192749,486.773163 215.041306,486.906097 
	C207.018478,482.289459 198.994736,477.674377 190.972961,473.055878 
	C174.027618,463.299622 157.122452,453.472809 140.128693,443.801697 
	C119.031883,431.795593 97.695312,420.200684 76.787582,407.876312 
	C64.599243,400.691742 52.903629,392.632324 41.315727,384.497314 
	C38.638470,382.617828 37.129623,378.920746 35.400215,375.879730 
	C32.694534,371.122009 30.177450,366.250702 27.765408,361.336731 
	C27.146788,360.076477 27.221024,358.476074 27.031538,356.145325 
	C26.973431,335.456604 26.860741,315.654510 26.779528,295.396362 
	C26.795891,277.334869 26.780779,259.729401 26.799515,241.648621 
	C26.909073,213.790070 26.984783,186.406830 27.060495,159.023605 
z" data-index="1" style="visibility: hidden;"></path>
<path fill="#39A481" opacity="1.000000" stroke="none" d="
M87.844688,227.982254 
	C87.890953,229.381256 87.937218,230.780258 87.557068,232.584198 
	C86.415070,232.970612 85.699501,232.952087 84.964355,232.540741 
	C84.995117,219.074142 85.045448,206.000366 85.234833,192.587921 
	C85.277397,189.845184 85.180923,187.441086 84.930908,184.664291 
	C82.490356,171.834885 86.720909,161.768188 95.668884,156.767746 
	C107.820755,149.976852 119.720940,142.737045 131.772232,135.764374 
	C156.084961,121.697433 180.388092,107.613022 204.775269,93.675964 
	C214.865845,87.909294 225.154083,82.487770 235.368378,76.938614 
	C240.625443,74.082588 245.750320,73.236633 251.387894,76.561096 
	C271.709167,88.544502 292.160126,100.308632 312.592957,112.102066 
	C331.441254,122.980942 350.304901,133.833817 369.210938,144.611908 
	C377.574371,149.379807 377.849792,154.569260 370.003387,160.398071 
	C363.194702,165.455994 356.445190,170.598602 349.783783,175.848755 
	C329.667450,191.703308 309.556671,207.565750 289.542755,223.549103 
	C277.202728,233.404007 265.080780,243.531876 252.752258,253.401489 
	C251.330399,254.539780 249.210663,254.806290 247.292694,255.341431 
	C247.170883,255.205887 246.926880,254.935150 246.926880,254.935150 
	C253.416595,249.393417 259.872467,243.811386 266.405029,238.320648 
	C273.757324,232.140915 281.072632,225.909348 288.601318,219.949554 
	C295.556580,214.443695 302.882019,209.405914 309.847107,203.911835 
	C318.948914,196.732224 327.795929,189.230423 336.863647,182.006622 
	C347.330261,173.668335 357.884247,165.438416 368.468018,157.248886 
	C373.273773,153.530258 373.057709,150.240494 367.732178,147.280609 
	C351.409943,138.208862 335.005066,129.277725 318.843292,119.927345 
	C296.449036,106.971191 274.261536,93.658104 251.951126,80.556412 
	C246.728165,77.489258 241.231339,77.690605 236.076538,80.549805 
	C216.877136,91.199051 197.776321,102.025940 178.627182,112.765999 
	C165.385101,120.193016 152.012314,127.394730 138.901108,135.045319 
	C123.265053,144.169189 107.812004,153.609558 92.383675,163.082199 
	C90.770973,164.072342 89.860779,166.206696 88.198822,168.364761 
	C87.537079,170.210281 87.100525,171.500458 87.095589,172.792267 
	C87.030769,189.746384 87.006531,206.700775 87.044235,223.654953 
	C87.047447,225.097977 87.565704,226.539841 87.844688,227.982254 
z" data-index="2"></path>
<path fill="#36A17E" opacity="1.000000" stroke="none" d="
M393.049866,216.144196 
	C382.263885,224.681229 371.512421,233.262344 360.683044,241.744003 
	C347.505096,252.065094 334.298065,262.349884 321.033691,272.559540 
	C312.078796,279.452179 302.935974,286.101074 294.000610,293.018402 
	C285.221558,299.814758 276.707214,306.955597 267.871307,313.675171 
	C261.126404,318.804565 253.123825,320.725128 244.802170,320.953186 
	C239.186356,321.107086 233.328491,321.511078 227.986511,320.174286 
	C221.911285,318.654053 216.278305,315.346283 210.477325,312.761047 
	C208.406860,311.838348 206.407333,310.756409 203.936340,309.281708 
	C202.970169,308.551758 202.443069,308.287201 201.915955,308.022644 
	C201.915955,308.022675 201.992249,307.992126 201.814880,307.856476 
	C201.372070,307.500336 201.106628,307.279877 200.841171,307.059387 
	C200.307144,306.927155 199.773117,306.794922 199.057571,306.165527 
	C198.905624,304.847717 198.935181,304.027069 199.278168,303.335724 
	C205.250092,306.608124 210.749710,310.096771 216.613815,312.792664 
	C221.986252,315.262482 227.695343,318.363861 233.355743,318.580292 
	C248.546021,319.160980 262.657990,315.921295 274.853485,305.296631 
	C289.120056,292.867584 304.417969,281.621216 319.285858,269.883820 
	C339.504456,253.922379 359.697266,237.927780 379.995392,222.067978 
	C385.471863,217.788940 391.289001,213.945862 396.963959,210.302765 
	C397.023224,211.501938 397.068298,212.301010 397.113373,213.100098 
	C397.113373,213.100098 397.051300,213.094620 396.787018,213.167480 
	C396.004333,213.515381 395.485931,213.790390 394.967499,214.065399 
	C394.967499,214.065384 395.013306,213.977844 394.792236,214.149368 
	C394.064087,214.928650 393.556976,215.536423 393.049866,216.144196 
z" data-index="3"></path>
<path fill="#2CA27C" opacity="1.000000" stroke="none" d="
M101.080063,352.980347 
	C118.410492,362.965820 135.737061,372.958038 153.072632,382.934570 
	C165.872620,390.300934 178.675156,397.662964 191.493286,404.997711 
	C206.403564,413.529663 221.345367,422.006653 236.245743,430.555817 
	C241.711166,433.691589 246.994125,432.277649 251.883224,429.585724 
	C267.077972,421.219666 282.120026,412.576324 297.945068,404.022217 
	C299.155365,404.036530 299.641876,404.069122 299.937012,404.374573 
	C298.251312,405.685303 296.817230,406.825775 295.253143,407.745056 
	C281.092560,416.067596 266.861176,424.270844 252.756653,432.686859 
	C247.197525,436.003876 241.778717,437.183228 235.851624,433.776855 
	C231.557129,431.308838 227.086807,429.146393 222.796265,426.671906 
	C204.244080,415.972290 185.725143,405.214905 167.202606,394.463898 
	C159.165436,389.798889 151.105255,385.171173 143.132187,380.398468 
	C128.035568,371.361633 112.994316,362.232330 98.126442,352.940094 
	C98.587440,352.473175 98.852043,352.207611 99.116653,351.942047 
	C99.116653,351.942047 99.547478,352.015778 99.930832,352.233063 
	C100.565010,352.633453 100.820297,352.810120 101.080063,352.980347 
z" data-index="4"></path>
<path fill="#39A481" opacity="1.000000" stroke="none" d="
M390.081543,418.087280 
	C380.188812,424.014374 370.321716,429.984741 360.395905,435.855988 
	C351.008087,441.408997 341.575562,446.887115 332.131989,452.345062 
	C320.746796,458.925171 309.356506,465.497406 297.917908,471.983978 
	C287.050751,478.146423 276.291473,484.533936 265.166412,490.197144 
	C253.920334,495.921967 241.901337,496.318298 229.566162,492.889099 
	C229.644180,492.295532 229.900711,492.088959 230.618179,491.910095 
	C236.558502,491.965210 242.076004,491.659607 247.526367,492.130676 
	C253.874100,492.679321 259.268036,490.405975 264.482941,487.451874 
	C279.641754,478.864655 294.761353,470.206451 309.826172,461.455383 
	C327.912292,450.949310 345.855774,440.195923 364.009003,429.808167 
	C370.441437,426.127319 377.308411,423.205933 384.153290,419.783600 
	C384.558167,419.415100 384.772644,419.187561 385.155640,418.785034 
	C385.590973,418.418152 385.852692,418.225189 386.501007,418.035767 
	C387.891541,417.978668 388.904572,417.930298 389.958527,417.933289 
	C389.999481,417.984680 390.081543,418.087280 390.081543,418.087280 
z" data-index="5"></path>
<path fill="#2BA77E" opacity="1.000000" stroke="none" d="
M458.727966,261.091064 
	C458.767822,263.414703 458.807678,265.738373 458.527496,268.760101 
	C457.814667,271.697510 457.086945,273.935822 457.080292,276.176300 
	C457.002167,302.383270 457.008667,328.590668 457.079224,354.797699 
	C457.084900,356.899872 457.729156,359.000305 458.076630,361.101562 
	C455.818207,372.655701 448.929047,381.455231 439.992432,388.244629 
	C431.786743,394.478668 422.494751,399.282928 413.098358,404.732544 
	C412.017792,404.501801 411.520294,404.255615 411.145935,403.691345 
	C418.524139,398.769196 425.981323,394.451263 432.990601,389.499390 
	C446.164948,380.192017 455.217133,368.542480 455.149048,351.208771 
	C455.001892,313.746613 455.341309,276.282654 455.441559,238.819305 
	C455.449005,236.035492 455.135986,233.250839 455.152527,230.252151 
	C456.193054,229.718384 457.053009,229.399017 457.926910,229.497131 
	C457.668518,235.338943 457.090942,240.770203 457.213654,246.185593 
	C457.326416,251.162964 458.193268,256.123260 458.727966,261.091064 
z" data-index="6"></path>

<path fill="#43A486" opacity="1.000000" stroke="none" d="
M457.912994,229.079666 
	C457.053009,229.399017 456.193054,229.718384 454.789307,230.350815 
	C451.401947,232.654770 448.419495,234.475784 445.739014,236.666321 
	C434.790192,245.613739 423.808411,254.528641 413.093994,263.752045 
	C407.444550,268.615265 400.536896,272.634430 400.984100,281.990234 
	C401.556488,293.964691 401.382080,305.974884 401.293793,318.239807 
	C400.459808,322.325073 399.861450,326.140198 399.263092,329.955292 
	C399.195374,326.965973 399.142822,323.976196 399.057251,320.987366 
	C398.706757,308.742950 398.356079,296.498444 397.985931,284.254578 
	C397.731171,275.828217 400.581665,269.539154 407.828857,264.216003 
	C418.208527,256.591980 427.520813,247.516556 437.306824,239.081680 
	C442.035400,235.005936 446.631805,230.744278 451.634125,227.033264 
	C453.903168,225.349976 457.101868,224.299942 458.663452,228.631958 
	C458.370483,229.038757 457.912994,229.079666 457.912994,229.079666 
z" data-index="8"></path>
<path fill="#3DAE87" opacity="1.000000" stroke="none" d="
M98.970490,351.615997 
	C98.852043,352.207611 98.587440,352.473175 97.791901,352.829712 
	C89.884895,349.672211 84.888206,344.788147 84.907753,336.024658 
	C84.984398,301.661102 84.966621,267.297272 84.983925,232.933548 
	C85.699501,232.952087 86.415070,232.970612 87.488403,232.999435 
	C87.886887,247.978729 87.927605,262.947723 87.693924,278.751831 
	C87.251175,280.727844 86.936440,281.868744 86.936409,283.009674 
	C86.935944,300.409210 86.954727,317.808899 87.043808,335.208130 
	C87.052101,336.828156 87.566574,338.445648 87.846024,340.064301 
	C88.890244,346.363800 94.352669,348.342407 98.970490,351.615997 
z" data-index="9"></path>
<path fill="#36A17E" opacity="1.000000" stroke="none" d="
M300.128387,404.101746 
	C299.641876,404.069122 299.155365,404.036530 298.304291,403.979950 
	C305.905823,398.985626 313.792816,393.882477 321.858154,389.078735 
	C331.843536,383.131378 341.943573,377.373657 352.057587,371.646118 
	C359.078644,367.670166 366.240936,363.944000 373.271515,359.984344 
	C376.377411,358.235046 379.313171,356.183685 382.793884,354.190796 
	C383.525513,354.062225 383.789032,354.009583 384.052094,353.954224 
	C384.052094,353.954224 384.002747,354.054901 384.128235,353.896484 
	C384.498962,353.571259 384.737671,353.395569 384.969879,353.211060 
	C384.969879,353.211060 385.428925,353.070190 386.004578,352.977051 
	C387.706818,352.200134 388.833405,351.516327 389.960022,350.832550 
	C389.979706,350.507690 390.126251,350.257019 391.020691,350.148712 
	C391.914307,350.309265 392.186951,350.401672 392.324585,350.801575 
	C391.700165,351.773468 391.353271,352.677307 390.699860,353.066223 
	C381.287811,358.669128 371.892181,364.304016 362.374268,369.723389 
	C353.577576,374.732147 344.626373,379.468933 335.766510,384.367706 
	C325.172791,390.225250 314.603821,396.127655 303.729431,402.105835 
	C302.621674,402.807007 301.808594,403.412994 300.778992,404.042175 
	C300.562439,404.065369 300.128387,404.101746 300.128387,404.101746 
z" data-index="10"></path>
<path fill="#3BA883" opacity="1.000000" stroke="none" d="
M162.131943,222.974609 
	C175.843445,229.541397 189.549088,236.120453 203.269318,242.668976 
	C208.772293,245.295471 214.347015,247.774246 219.815933,250.468735 
	C224.708160,252.879089 229.499817,255.493607 234.646393,258.584442 
	C234.961227,259.491547 234.965530,259.832214 234.586960,260.139587 
	C232.653625,259.573120 231.008072,259.222900 229.569107,258.475128 
	C223.275864,255.204758 217.156052,251.581894 210.764725,248.522766 
	C195.690277,241.307556 180.484665,234.366791 165.369537,227.235687 
	C163.782715,226.487045 162.445633,225.209045 161.172699,223.967087 
	C161.612442,223.496552 161.872192,223.235580 162.131943,222.974609 
z" data-index="11"></path>
<path fill="#4AA687" opacity="1.000000" stroke="none" d="
M198.964722,303.206390 
	C198.935181,304.027069 198.905624,304.847717 198.933487,305.914185 
	C188.583908,300.862274 178.151932,295.612762 167.783997,290.239716 
	C164.348206,288.459137 160.630829,286.842560 157.855835,284.272491 
	C155.055161,281.678650 153.264038,277.994781 151.024231,273.937439 
	C151.090286,257.663330 151.162689,242.240280 151.364471,227.218811 
	C151.661255,240.426590 151.745514,253.234909 152.071640,266.037048 
	C152.131271,268.378662 153.175491,270.695190 153.819611,273.357666 
	C153.887070,274.143768 153.900146,274.595459 153.843414,275.240356 
	C153.864288,275.958405 153.955002,276.483276 154.299469,277.222534 
	C157.265427,279.545441 159.759155,282.048248 162.728165,283.693207 
	C174.727417,290.341278 186.873093,296.725067 198.964722,303.206390 
z" data-index="12"></path>
<path fill="#348E72" opacity="1.000000" stroke="none" d="
M458.412994,360.823059 
	C457.729156,359.000305 457.084900,356.899872 457.079224,354.797699 
	C457.008667,328.590668 457.002167,302.383270 457.080292,276.176300 
	C457.086945,273.935822 457.814667,271.697510 458.469299,269.192291 
	C458.798218,272.004395 458.865265,275.082397 458.672852,278.975708 
	C458.275787,297.073029 458.127411,314.354919 458.036163,331.637146 
	C458.032104,332.404327 458.548370,333.174255 458.822266,333.942902 
	C458.797974,342.810120 458.773651,351.677338 458.412994,360.823059 
z" data-index="13"></path>
<path fill="#47B690" opacity="1.000000" stroke="none" d="
M153.765228,273.023315 
	C153.175491,270.695190 152.131271,268.378662 152.071640,266.037048 
	C151.745514,253.234909 151.661255,240.426590 151.297241,226.973755 
	C151.106644,226.156494 151.112671,225.985901 151.118683,225.815308 
	C151.118683,225.815308 151.035736,225.447281 151.347336,225.093201 
	C152.466782,223.532104 153.274643,222.325089 154.082489,221.118088 
	C156.641373,221.502426 159.200256,221.886749 161.945541,222.622849 
	C161.872192,223.235580 161.612442,223.496552 160.755600,223.947327 
	C155.464966,223.441467 153.990448,225.796738 153.995850,230.151413 
	C154.013565,244.441940 153.855652,258.732666 153.765228,273.023315 
z" data-index="14"></path>

<path fill="#36A17E" opacity="1.000000" stroke="none" d="
M399.205078,330.224915 
	C399.861450,326.140198 400.459808,322.325073 401.374939,318.704468 
	C401.640533,326.361389 401.945404,333.850006 401.400116,341.276184 
	C401.089600,345.504669 399.552155,349.768921 394.119324,349.853149 
	C394.483490,349.024902 394.733582,348.475830 394.983643,347.926758 
	C395.025208,347.582306 395.188721,347.311523 395.846588,346.970215 
	C396.445770,346.492523 396.672516,346.158936 396.899261,345.825378 
	C396.899261,345.825378 396.999207,345.908295 397.140503,345.771179 
	C397.506805,345.367950 397.731812,345.101868 397.956787,344.835815 
	C398.333740,343.450409 398.710663,342.065063 399.276550,339.954956 
	C399.396576,336.498383 399.327667,333.766571 399.258759,331.034729 
	C399.221558,330.854675 399.184326,330.674622 399.205078,330.224915 
z" data-index="16"></path>
<path fill="#81C1AF" opacity="1.000000" stroke="none" d="
M87.904495,339.590729 
	C87.566574,338.445648 87.052101,336.828156 87.043808,335.208130 
	C86.954727,317.808899 86.935944,300.409210 86.936409,283.009674 
	C86.936440,281.868744 87.251175,280.727844 87.627312,279.205078 
	C87.877724,298.921234 87.920341,319.019196 87.904495,339.590729 
z" data-index="17"></path>

<path fill="#81C1AF" opacity="1.000000" stroke="none" d="
M87.909943,227.517288 
	C87.565704,226.539841 87.047447,225.097977 87.044235,223.654953 
	C87.006531,206.700775 87.030769,189.746384 87.095589,172.792267 
	C87.100525,171.500458 87.537079,170.210281 87.878708,168.537720 
	C87.981346,187.788147 87.978271,207.420242 87.909943,227.517288 
z" data-index="19" style="visibility: hidden;"></path>

<path fill="#81C1AF" opacity="1.000000" stroke="none" d="
M458.896606,333.481445 
	C458.548370,333.174255 458.032104,332.404327 458.036163,331.637146 
	C458.127411,314.354919 458.275787,297.073029 458.612244,279.432922 
	C458.864319,297.056549 458.917633,315.038269 458.896606,333.481445 
z" data-index="21"></path>

<path fill="#39A481" opacity="1.000000" stroke="none" d="
M411.022766,404.009430 
	C411.520294,404.255615 412.017792,404.501801 412.766541,404.866516 
	C410.093292,406.988281 407.280518,409.185577 404.217651,410.948303 
	C399.842041,413.466492 395.283325,415.666565 390.442200,418.044922 
	C390.081543,418.087280 389.999481,417.984680 390.095825,417.659180 
	C390.807434,416.286438 391.422699,415.239227 392.065002,414.160675 
	C392.092010,414.129333 392.142242,414.063538 392.481781,414.034515 
	C394.206329,413.355957 395.591309,412.706390 397.001709,412.039520 
	C397.027100,412.022186 397.081909,411.994263 397.324219,411.866150 
	C398.051147,411.204010 398.535797,410.669952 399.366882,410.085449 
	C400.816833,409.686127 401.920349,409.337250 403.313110,408.894226 
	C404.397034,408.192902 405.191650,407.585632 406.232849,406.848755 
	C406.981476,406.477509 407.483490,406.235870 408.163391,405.843719 
	C408.572693,405.486053 408.790985,405.265930 409.002625,405.020325 
	C409.009125,405.007843 409.034698,404.996307 409.198486,404.854736 
	C409.575439,404.519196 409.778076,404.314911 410.233521,404.079437 
	C410.672150,404.042236 410.847443,404.025818 411.022766,404.009430 
z" data-index="23"></path>
<path fill="#A4CCC3" opacity="1.000000" stroke="none" d="
M150.732147,226.052032 
	C151.112671,225.985901 151.106644,226.156494 151.167847,226.572174 
	C151.162689,242.240280 151.090286,257.663330 151.050568,273.557983 
	C150.737610,273.540802 150.088837,273.051147 150.090302,272.563416 
	C150.136490,257.138428 150.245865,241.713608 150.732147,226.052032 
z" data-index="24"></path>
<path fill="#39A481" opacity="1.000000" stroke="none" d="
M234.969818,260.172913 
	C234.965530,259.832214 234.961227,259.491547 234.955719,258.639771 
	C237.039490,258.152832 239.124466,258.177002 241.717361,257.920776 
	C242.481415,257.475342 242.732407,257.302795 242.978256,257.122772 
	C244.093689,256.476898 245.209122,255.831009 246.625717,255.060135 
	C246.926880,254.935150 247.170883,255.205887 247.206207,255.665283 
	C244.357498,261.930786 240.504562,263.201813 234.969818,260.172913 
z" data-index="25"></path>

<path fill="#37A480" opacity="1.000000" stroke="none" d="
M226.201202,491.887268 
	C225.425842,491.104919 224.871704,490.395721 224.519241,489.458405 
	C226.535828,490.117798 228.350754,491.005341 230.165665,491.892853 
	C229.900711,492.088959 229.644180,492.295532 229.214386,492.679688 
	C228.858292,492.887360 228.683914,492.927826 228.066345,492.786438 
	C227.382263,492.412750 227.133713,492.231354 226.877502,492.060455 
	C226.877502,492.060455 226.422409,491.960419 226.201202,491.887268 
z" data-index="27" style="visibility: hidden;"></path>
<path fill="#43A486" opacity="1.000000" stroke="none" d="
M399.192993,331.476898 
	C399.327667,333.766571 399.396576,336.498383 399.353455,339.589783 
	C399.203400,337.272614 399.165314,334.595825 399.192993,331.476898 
z" data-index="28"></path>
<path fill="#4AA687" opacity="1.000000" stroke="none" d="
M153.711975,221.059967 
	C153.274643,222.325089 152.466782,223.532104 151.393799,224.910385 
	C151.866272,223.721725 152.603867,222.361771 153.711975,221.059967 
z" data-index="29"></path>
<path fill="#36A17E" opacity="1.000000" stroke="none" d="
M400.915131,206.921539 
	C401.200500,207.484955 401.485840,208.048370 401.907349,208.897293 
	C401.595795,209.453552 401.148102,209.724319 399.984711,209.855164 
	C398.979797,209.604889 398.690552,209.494537 398.590515,209.163330 
	C399.491516,208.268829 400.203308,207.595184 400.915131,206.921539 
z" data-index="30"></path>
<path fill="#40A383" opacity="1.000000" stroke="none" d="
M398.401337,209.384171 
	C398.690552,209.494537 398.979797,209.604889 399.703003,209.880768 
	C399.326691,210.996826 398.516388,211.947372 397.409729,212.999008 
	C397.068298,212.301010 397.023224,211.501938 397.207794,210.217957 
	C397.758759,209.616776 398.080048,209.500473 398.401337,209.384171 
z" data-index="31"></path>
<path fill="#43A486" opacity="1.000000" stroke="none" d="
M394.639648,347.968964 
	C394.733582,348.475830 394.483490,349.024902 393.862030,349.916687 
	C393.146973,350.337616 392.803284,350.415833 392.459595,350.494080 
	C392.186951,350.401672 391.914307,350.309265 391.233276,350.076172 
	C391.981781,349.294006 393.138733,348.652588 394.639648,347.968964 
z" data-index="32"></path>
<path fill="#43A486" opacity="1.000000" stroke="none" d="
M389.623718,350.911743 
	C388.833405,351.516327 387.706818,352.200134 386.239746,352.928802 
	C387.028625,352.312775 388.158020,351.651855 389.623718,350.911743 
z" data-index="33"></path>
<path fill="#40A383" opacity="1.000000" stroke="none" d="
M393.323212,216.013565 
	C393.556976,215.536423 394.064087,214.928650 394.836060,214.172241 
	C394.599457,214.643372 394.098022,215.263153 393.323212,216.013565 
z" data-index="34"></path>
<path fill="#4AA687" opacity="1.000000" stroke="none" d="
M202.050781,308.311096 
	C202.443069,308.287201 202.970169,308.551758 203.735046,308.993011 
	C203.377090,308.979675 202.781357,308.789642 202.050781,308.311096 
z" data-index="35"></path>
<path fill="#40A383" opacity="1.000000" stroke="none" d="
M395.286285,214.035217 
	C395.485931,213.790390 396.004333,213.515381 396.798401,213.138474 
	C396.584381,213.359406 396.094727,213.682220 395.286285,214.035217 
z" data-index="36"></path>
<path fill="#43A486" opacity="1.000000" stroke="none" d="
M396.661621,345.929932 
	C396.672516,346.158936 396.445770,346.492523 396.065125,346.863464 
	C396.082123,346.612061 396.253082,346.323273 396.661621,345.929932 
z" data-index="37"></path>
<path fill="#3BA883" opacity="1.000000" stroke="none" d="
M242.722260,257.113007 
	C242.732407,257.302795 242.481415,257.475342 242.034760,257.763245 
	C242.051575,257.625122 242.258926,257.364197 242.722260,257.113007 
z" data-index="38"></path>

<path fill="#43A486" opacity="1.000000" stroke="none" d="
M383.781799,353.961945 
	C383.789032,354.009583 383.525513,354.062225 383.127563,354.118652 
	C383.166199,354.073395 383.338867,354.021545 383.781799,353.961945 
z" data-index="40"></path>
<path fill="#43A486" opacity="1.000000" stroke="none" d="
M384.714478,353.195709 
	C384.737671,353.395569 384.498962,353.571259 384.077881,353.871887 
	C384.087708,353.730530 384.273407,353.455444 384.714478,353.195709 
z" data-index="41"></path>
<path fill="#3DAE87" opacity="1.000000" stroke="none" d="
M101.006470,352.714783 
	C100.820297,352.810120 100.565010,352.633453 100.140831,352.293549 
	C100.289276,352.240906 100.611084,352.345093 101.006470,352.714783 
z" data-index="42"></path>
<path fill="#4AA687" opacity="1.000000" stroke="none" d="
M200.959015,307.309326 
	C201.106628,307.279877 201.372070,307.500336 201.830231,307.894592 
	C201.707565,307.898651 201.392212,307.728943 200.959015,307.309326 
z" data-index="43"></path>
<path fill="#43A486" opacity="1.000000" stroke="none" d="
M397.685486,344.929840 
	C397.731812,345.101868 397.506805,345.367950 397.099121,345.821167 
	C397.082275,345.680176 397.248199,345.352020 397.685486,344.929840 
z" data-index="44"></path>
<path fill="#04A96E" opacity="1.000000" stroke="none" d="
M392.324585,350.801575 
	C392.803284,350.415833 393.146973,350.337616 393.747986,350.195862 
	C399.552155,349.768921 401.089600,345.504669 401.400116,341.276184 
	C401.945404,333.850006 401.640533,326.361389 401.610596,318.434296 
	C401.382080,305.974884 401.556488,293.964691 400.984100,281.990234 
	C400.536896,272.634430 407.444550,268.615265 413.093994,263.752045 
	C423.808411,254.528641 434.790192,245.613739 445.739014,236.666321 
	C448.419495,234.475784 451.401947,232.654770 454.608765,230.565231 
	C455.135986,233.250839 455.449005,236.035492 455.441559,238.819305 
	C455.341309,276.282654 455.001892,313.746613 455.149048,351.208771 
	C455.217133,368.542480 446.164948,380.192017 432.990601,389.499390 
	C425.981323,394.451263 418.524139,398.769196 411.145935,403.691345 
	C410.847443,404.025818 410.672150,404.042236 410.062744,404.211304 
	C409.409180,404.554535 409.211182,404.765320 409.034698,404.996307 
	C409.034698,404.996307 409.009125,405.007843 408.819092,405.163544 
	C408.390808,405.521698 408.176300,405.746704 407.985504,405.994263 
	C407.483490,406.235870 406.981476,406.477509 405.920715,406.903748 
	C404.582581,407.721710 403.803223,408.355042 403.023865,408.988342 
	C401.920349,409.337250 400.816833,409.686127 399.108704,410.187958 
	C398.029999,410.891998 397.555939,411.443115 397.081909,411.994263 
	C397.081909,411.994263 397.027100,412.022186 396.671844,412.094971 
	C394.925140,412.799713 393.533691,413.431641 392.142242,414.063538 
	C392.142242,414.063538 392.092010,414.129333 391.716492,414.184052 
	C389.601776,415.507355 387.862610,416.775909 386.123474,418.044495 
	C385.852692,418.225189 385.590973,418.418152 384.974792,418.935425 
	C384.379242,419.458679 384.167847,419.688782 383.977020,419.937836 
	C377.308411,423.205933 370.441437,426.127319 364.009003,429.808167 
	C345.855774,440.195923 327.912292,450.949310 309.826172,461.455383 
	C294.761353,470.206451 279.641754,478.864655 264.482941,487.451874 
	C259.268036,490.405975 253.874100,492.679321 247.526367,492.130676 
	C242.076004,491.659607 236.558502,491.965210 230.618179,491.910095 
	C228.350754,491.005341 226.535828,490.117798 224.352249,489.245972 
	C222.539139,488.318848 221.094711,487.376007 219.324265,486.429932 
	C213.892838,483.335114 208.839294,480.153748 203.673203,477.167114 
	C178.473373,462.598328 153.218811,448.124115 128.032150,433.532623 
	C108.755737,422.365173 89.538116,411.095917 70.323128,399.822906 
	C64.014763,396.121918 57.682716,392.441742 51.560555,388.447021 
	C37.805149,379.471527 30.085768,366.715424 29.962116,350.237274 
	C29.683655,313.128601 29.953844,276.016113 29.835829,238.905716 
	C29.792963,225.425659 29.034245,211.946793 29.051777,198.467972 
	C29.069525,184.821686 28.988550,171.120544 30.141012,157.544464 
	C31.550585,140.939621 39.125935,127.480209 53.996391,118.891068 
	C72.577065,108.158897 91.201057,97.501747 109.794067,86.790901 
	C129.637802,75.359543 149.450882,63.874901 169.307755,52.466457 
	C186.900589,42.358780 204.138367,31.525459 222.277161,22.509895 
	C236.725388,15.328654 252.252380,15.220575 266.790100,23.594923 
	C286.679260,35.051910 306.318726,46.942265 326.206848,58.401031 
	C347.101532,70.439735 368.180939,82.157310 389.145538,94.075249 
	C402.001709,101.383728 414.783783,108.822479 427.628723,116.150955 
	C429.048431,116.960945 430.662720,117.429939 432.551208,118.124550 
	C433.101196,118.435234 433.310974,118.655312 433.898682,119.135544 
	C434.485107,119.606384 434.735718,119.766029 435.004120,119.897766 
	C439.704437,122.727646 444.366455,125.623772 449.116028,128.368439 
	C453.710632,131.023575 456.125885,134.862183 456.088013,140.200287 
	C456.082092,141.033035 456.122375,141.865982 456.126282,142.698914 
	C456.236694,166.119263 455.894989,161.172272 439.679779,175.450928 
	C430.205841,183.793411 419.993256,191.296860 410.116516,199.182220 
	C407.143036,201.556183 404.181458,203.945099 401.064758,206.624344 
	C400.203308,207.595184 399.491516,208.268829 398.590515,209.163330 
	C398.080048,209.500473 397.758759,209.616776 397.193634,209.817871 
	C391.289001,213.945862 385.471863,217.788940 379.995392,222.067978 
	C359.697266,237.927780 339.504456,253.922379 319.285858,269.883820 
	C304.417969,281.621216 289.120056,292.867584 274.853485,305.296631 
	C262.657990,315.921295 248.546021,319.160980 233.355743,318.580292 
	C227.695343,318.363861 221.986252,315.262482 216.613815,312.792664 
	C210.749710,310.096771 205.250092,306.608124 199.278168,303.335724 
	C186.873093,296.725067 174.727417,290.341278 162.728165,283.693207 
	C159.759155,282.048248 157.265427,279.545441 154.303101,276.893951 
	C154.006393,275.916351 153.959808,275.481781 153.913223,275.047180 
	C153.900146,274.595459 153.887070,274.143768 153.819611,273.357666 
	C153.855652,258.732666 154.013565,244.441940 153.995850,230.151413 
	C153.990448,225.796738 155.464966,223.441467 160.575592,224.156891 
	C162.445633,225.209045 163.782715,226.487045 165.369537,227.235687 
	C180.484665,234.366791 195.690277,241.307556 210.764725,248.522766 
	C217.156052,251.581894 223.275864,255.204758 229.569107,258.475128 
	C231.008072,259.222900 232.653625,259.573120 234.586960,260.139587 
	C240.504562,263.201813 244.357498,261.930786 247.328003,255.800842 
	C249.210663,254.806290 251.330399,254.539780 252.752258,253.401489 
	C265.080780,243.531876 277.202728,233.404007 289.542755,223.549103 
	C309.556671,207.565750 329.667450,191.703308 349.783783,175.848755 
	C356.445190,170.598602 363.194702,165.455994 370.003387,160.398071 
	C377.849792,154.569260 377.574371,149.379807 369.210938,144.611908 
	C350.304901,133.833817 331.441254,122.980942 312.592957,112.102066 
	C292.160126,100.308632 271.709167,88.544502 251.387894,76.561096 
	C245.750320,73.236633 240.625443,74.082588 235.368378,76.938614 
	C225.154083,82.487770 214.865845,87.909294 204.775269,93.675964 
	C180.388092,107.613022 156.084961,121.697433 131.772232,135.764374 
	C119.720940,142.737045 107.820755,149.976852 95.668884,156.767746 
	C86.720909,161.768188 82.490356,171.834885 84.901489,185.101440 
	C85.048988,188.249725 85.072388,190.588150 85.095787,192.926575 
	C85.045448,206.000366 84.995117,219.074142 84.964355,232.540741 
	C84.966621,267.297272 84.984398,301.661102 84.907753,336.024658 
	C84.888206,344.788147 89.884895,349.672211 97.595520,353.031067 
	C112.994316,362.232330 128.035568,371.361633 143.132187,380.398468 
	C151.105255,385.171173 159.165436,389.798889 167.202606,394.463898 
	C185.725143,405.214905 204.244080,415.972290 222.796265,426.671906 
	C227.086807,429.146393 231.557129,431.308838 235.851624,433.776855 
	C241.778717,437.183228 247.197525,436.003876 252.756653,432.686859 
	C266.861176,424.270844 281.092560,416.067596 295.253143,407.745056 
	C296.817230,406.825775 298.251312,405.685303 299.937012,404.374573 
	C300.128387,404.101746 300.562439,404.065369 301.071899,403.944214 
	C302.395630,403.218933 303.209869,402.614777 304.024109,402.010620 
	C314.603821,396.127655 325.172791,390.225250 335.766510,384.367706 
	C344.626373,379.468933 353.577576,374.732147 362.374268,369.723389 
	C371.892181,364.304016 381.287811,358.669128 390.699860,353.066223 
	C391.353271,352.677307 391.700165,351.773468 392.324585,350.801575 
z" data-index="45" style="opacity: 1;"></path>

<path fill="#2BA77E" opacity="1.000000" stroke="none" d="
M386.500977,418.035767 
	C387.862610,416.775909 389.601776,415.507355 391.689453,414.215393 
	C391.422699,415.239227 390.807434,416.286438 390.054871,417.607788 
	C388.904572,417.930298 387.891541,417.978668 386.500977,418.035767 
z" data-index="47"></path>
<path fill="#2BA77E" opacity="1.000000" stroke="none" d="
M384.153290,419.783600 
	C384.167847,419.688782 384.379242,419.458679 384.792114,419.097076 
	C384.772644,419.187561 384.558167,419.415100 384.153290,419.783600 
z" data-index="48"></path>

<path fill="#2CA27C" opacity="1.000000" stroke="none" d="
M303.729431,402.105835 
	C303.209869,402.614777 302.395630,403.218933 301.288452,403.921021 
	C301.808594,403.412994 302.621674,402.807007 303.729431,402.105835 
z" data-index="50"></path>
<path fill="#47B690" opacity="1.000000" stroke="none" d="
M153.843414,275.240356 
	C153.959808,275.481781 154.006393,275.916351 154.049347,276.679535 
	C153.955002,276.483276 153.864288,275.958405 153.843414,275.240356 
z" data-index="51"></path>
<path fill="#2BA77E" opacity="1.000000" stroke="none" d="
M392.481781,414.034515 
	C393.533691,413.431641 394.925140,412.799713 396.646423,412.112305 
	C395.591309,412.706390 394.206329,413.355957 392.481781,414.034515 
z" data-index="52"></path>
<path fill="#2BA77E" opacity="1.000000" stroke="none" d="
M403.313141,408.894257 
	C403.803223,408.355042 404.582581,407.721710 405.674072,407.033386 
	C405.191650,407.585632 404.397034,408.192902 403.313141,408.894257 
z" data-index="53"></path>
<path fill="#2BA77E" opacity="1.000000" stroke="none" d="
M397.324219,411.866150 
	C397.555939,411.443115 398.029999,410.891998 398.762268,410.238403 
	C398.535797,410.669952 398.051147,411.204010 397.324219,411.866150 
z" data-index="54"></path>
<path fill="#2BA77E" opacity="1.000000" stroke="none" d="
M408.163391,405.843750 
	C408.176300,405.746704 408.390808,405.521698 408.812592,405.176025 
	C408.790985,405.265930 408.572693,405.486053 408.163391,405.843750 
z" data-index="55"></path>
<path fill="#2BA77E" opacity="1.000000" stroke="none" d="
M409.198486,404.854736 
	C409.211182,404.765320 409.409180,404.554535 409.799438,404.232086 
	C409.778076,404.314911 409.575439,404.519196 409.198486,404.854736 
z" data-index="56"></path>
</svg>